HIERARCHY
ROOT root
{
	OFFSET	0	13.1	24.9
	CHANNELS 6  Xposition Yposition Zposition Xrotation Yrotation Zrotation
	JOINT spine_1
	{
		OFFSET	0	9.99999	0
		CHANNELS 3  Xrotation Yrotation Zrotation
		JOINT spine_2
		{
			OFFSET	0	112	-10
			CHANNELS 3  Xrotation Yrotation Zrotation
			JOINT spine_3
			{
				OFFSET	0	206.5	19.3
				CHANNELS 3  Xrotation Yrotation Zrotation
				JOINT spine_4
				{
					OFFSET	0	110.4	14.6
					CHANNELS 3  Xrotation Yrotation Zrotation
					JOINT neck_1
					{
						OFFSET	0	71.8	-50.3
						CHANNELS 3  Xrotation Yrotation Zrotation
						JOINT neck_2
						{
							OFFSET	0	86.2	-25.8
							CHANNELS 3  Xrotation Yrotation Zrotation
							JOINT head_ee
							{
								OFFSET	0	179.8	-8.7
								CHANNELS 3  Xrotation Yrotation Zrotation
								End Site
								{
									OFFSET	1	0	0
								}
							}
						}
					}
					JOINT left_clavicle
					{
						OFFSET	-43.2	22.4	-70.8
						CHANNELS 3  Xrotation Yrotation Zrotation
						JOINT left_shoulder
						{
							OFFSET	-93.9	-5.79999	48.7
							CHANNELS 3  Xrotation Yrotation Zrotation
							JOINT left_elbow
							{
								OFFSET	-291.4	-30.8	15.2
								CHANNELS 3  Xrotation Yrotation Zrotation
								JOINT left_lowarm_twist
								{
									OFFSET	-110.7	-3.89999	13.6
									CHANNELS 3  Xrotation Yrotation Zrotation
									JOINT left_hand
									{
										OFFSET	-110.7	-3.89999	13.6
										CHANNELS 3  Xrotation Yrotation Zrotation
										JOINT left_ee
										{
											OFFSET	-80.8	-5.10001	12.1
											CHANNELS 3  Xrotation Yrotation Zrotation
											End Site
											{
												OFFSET	1	0	0
											}
										}
									}
								}
							}
						}
					}
					JOINT right_clavicle
					{
						OFFSET	43.2	22.4	-70.8
						CHANNELS 3  Xrotation Yrotation Zrotation
						JOINT right_shoulder
						{
							OFFSET	93.9	-5.79999	48.7
							CHANNELS 3  Xrotation Yrotation Zrotation
							JOINT right_elbow
							{
								OFFSET	291.4	-30.8	15.2
								CHANNELS 3  Xrotation Yrotation Zrotation
								JOINT right_lowarm_twist
								{
									OFFSET	110.7	-3.89999	13.6
									CHANNELS 3  Xrotation Yrotation Zrotation
									JOINT right_hand
									{
										OFFSET	110.7	-3.89999	13.6
										CHANNELS 3  Xrotation Yrotation Zrotation
										JOINT right_ee
										{
											OFFSET	80.8	-5.10001	12.1
											CHANNELS 3  Xrotation Yrotation Zrotation
											End Site
											{
												OFFSET	1	0	0
											}
										}
									}
								}
							}
						}
					}
				}
			}
		}
	}
	JOINT left_hip
	{
		OFFSET	-82.8	-127.5	0.300001
		CHANNELS 3  Xrotation Yrotation Zrotation
		JOINT left_knee
		{
			OFFSET	-28.2	-396.7	2.2
			CHANNELS 3  Xrotation Yrotation Zrotation
			JOINT left_ankle
			{
				OFFSET	-11.7	-411.3	35.4
				CHANNELS 3  Xrotation Yrotation Zrotation
				JOINT left_toes
				{
					OFFSET	0	-60	-88.6
					CHANNELS 3  Xrotation Yrotation Zrotation
					JOINT left_foot_ee
					{
						OFFSET	-22.5	-16.5	-42.2
						CHANNELS 3  Xrotation Yrotation Zrotation
						End Site
						{
							OFFSET	1	0	0
						}
					}
				}
			}
		}
	}
	JOINT right_hip
	{
		OFFSET	82.8	-127.5	0.300001
		CHANNELS 3  Xrotation Yrotation Zrotation
		JOINT right_knee
		{
			OFFSET	28.2	-396.7	2.2
			CHANNELS 3  Xrotation Yrotation Zrotation
			JOINT right_ankle
			{
				OFFSET	11.7	-411.3	35.4
				CHANNELS 3  Xrotation Yrotation Zrotation
				JOINT right_toes
				{
					OFFSET	0	-60	-88.6
					CHANNELS 3  Xrotation Yrotation Zrotation
					JOINT right_foot_ee
					{
						OFFSET	22.5	-16.5	-42.2
						CHANNELS 3  Xrotation Yrotation Zrotation
						End Site
						{
							OFFSET	1	0	0
						}
					}
				}
			}
		}
	}
}
MOTION
Frames: 8
Frame Time: 0.02
1372.05 701.618 -1475.22 -17.2635164765 16.6146615861 8.80976057211 6.81469 0.12143 0.927545 6.81517 0.0621649 0.933392 6.81553 -0.0245982 0.935136 6.81433 0.123391 0.927287 -10.5559 5.95792 -11.7753 -10.2623 19.087 -9.98383 -0.0 0.0 -0.0 1.22742 11.9447 3.46999 -3.85189 -15.9445 55.1621 2.22991 -47.8397 0.989182 -31.3018 -2.07712 3.36859 0.722984 -15.2937 -1.65032 -0.0 0.0 -0.0 7.19809 8.27068 -13.8682 -32.9405 30.181 -70.808 0.482768 13.4498 -0.0569253 -23.0451 1.3537 -2.59726 1.48214 -4.36697 -11.673 0.0 0.0 0.0 8.7802 28.0791 -0.591385 -11.9881 0.305064 1.81112 39.0646 16.6485 -4.87411 7.69219 -0.0 -0.0 -0.0 0.0 -0.0 46.0507 -5.58899 -13.45 -3.26618 -0.120632 -0.486673 21.5102 15.96 3.16564 6.06126 -0.0 -0.0 0.0 0.0 0.0 
1359.87353726 695.697 -1493.43673558 -15.9844483111 17.0549558031 8.30398321653 6.70725 0.121736 0.88609 6.70768 0.0651073 0.89204 6.70811 -0.0195124 0.8942 6.70702 0.121949 0.886061 -10.4083 5.83295 -12.8132 -10.0346 19.5714 -11.077 -0.0 0.0 -0.0 0.999897 12.1428 3.10659 -6.31205 -16.1606 55.6984 2.16436 -46.9884 0.940918 -31.7029 -2.11505 3.40336 0.683718 -15.3898 -1.95535 -0.0 0.0 -0.0 7.13671 7.98923 -13.7482 -32.0717 30.162 -70.4333 0.542735 15.0486 -0.071687 -22.8997 1.34199 -2.58278 1.4809 -3.47932 -11.3205 0.0 0.0 0.0 7.94443 27.9982 -1.25716 -15.6754 0.322069 2.37651 40.6946 16.5676 -5.02066 7.56385 -0.0 -0.0 -0.0 0.0 -0.0 44.4068 -5.38351 -12.9479 -5.94684 -0.198769 -0.890612 21.4126 17.7286 3.19607 7.22907 -0.0 -0.0 0.0 0.0 0.0 
1346.8282342 693.417 -1507.81493718 -15.6839080474 17.722574393 7.9664862576 6.54556 0.216531 0.855366 6.54595 0.161665 0.867409 6.54788 0.0764943 0.879023 6.54686 0.214354 0.855913 -10.3505 5.06487 -13.4291 -9.91391 18.556 -11.895 -0.0 0.0 -0.0 0.941703 12.8216 3.07256 -8.10625 -16.0433 56.715 2.09276 -46.0265 0.888975 -32.9426 -2.23377 3.50912 0.959664 -15.2506 -0.0445163 -0.0 0.0 -0.0 7.76846 8.64684 -15.0601 -31.068 30.3176 -68.4211 0.580798 16.0512 -0.0818912 -22.8501 1.338 -2.57783 1.80428 -2.75816 -13.2331 0.0 0.0 0.0 7.98364 26.7595 -1.58344 -19.6029 0.300152 2.9786 41.6997 14.876 -5.08018 7.97403 -0.0 -0.0 -0.0 0.0 -0.0 44.524 -5.35704 -11.8023 -9.36056 -0.270769 -1.40944 23.7179 18.7936 3.52444 8.85025 -0.0 -0.0 0.0 0.0 0.0 
1347.34182899 693.417 -1508.20596194 -15.6085676312 16.8584240288 7.71300723178 6.54556 0.216531 0.855366 6.54595 0.161665 0.867409 6.54788 0.0764943 0.879023 6.54686 0.214354 0.855913 -10.3505 5.06487 -13.4291 -9.91391 18.556 -11.895 -0.0 0.0 -0.0 0.941703 12.8216 3.07256 -8.10625 -16.0433 56.715 2.09276 -46.0265 0.888975 -32.9426 -2.23377 3.50912 0.959664 -15.2506 -0.0445163 -0.0 0.0 -0.0 7.76846 8.64684 -15.0601 -31.068 30.3176 -68.4211 0.580798 16.0512 -0.0818912 -22.8501 1.338 -2.57783 1.80428 -2.75816 -13.2331 0.0 0.0 0.0 7.98364 26.7595 -1.58344 -19.6029 0.300152 2.9786 41.6997 14.876 -5.08018 7.97403 -0.0 -0.0 -0.0 0.0 -0.0 44.524 -5.35704 -11.8023 -9.36056 -0.270769 -1.40944 23.7179 18.7936 3.52444 8.85025 -0.0 -0.0 0.0 0.0 0.0 
1336.73010573 696.228 -1526.56011948 -15.0319663814 17.3885479855 7.73034606114 6.38643 0.230025 0.917326 6.38688 0.171189 0.930103 6.38908 0.0772628 0.942563 6.38791 0.225147 0.918535 -10.4548 4.92243 -13.7503 -9.99596 18.4869 -12.2314 -0.0 0.0 -0.0 0.943412 13.7617 3.1623 -9.53822 -15.3932 57.2502 1.95195 -44.0323 0.789345 -33.2446 -2.26304 3.53449 0.995723 -14.7761 0.404451 -0.0 0.0 -0.0 8.03664 8.15572 -15.6401 -30.3267 30.5061 -67.5948 0.613344 16.9006 -0.091122 -22.7963 1.33368 -2.57246 1.8512 -2.24096 -13.3518 0.0 0.0 0.0 8.45069 26.0454 -2.68019 -21.467 0.27532 3.26354 41.2453 14.1789 -5.03044 7.88516 -0.0 -0.0 -0.0 0.0 -0.0 44.2923 -5.46406 -11.2253 -12.7984 -0.31192 -1.93525 23.357 19.3257 3.49376 9.50583 -0.0 -0.0 0.0 0.0 0.0 
1338.04674301 696.228 -1527.44146411 -14.9191298127 15.981231204 7.33736610165 6.38643 0.230025 0.917326 6.38688 0.171189 0.930103 6.38908 0.0772628 0.942563 6.38791 0.225147 0.918535 -10.4548 4.92243 -13.7503 -9.99596 18.4869 -12.2314 -0.0 0.0 -0.0 0.943412 13.7617 3.1623 -9.53822 -15.3932 57.2502 1.95195 -44.0323 0.789345 -33.2446 -2.26304 3.53449 0.995723 -14.7761 0.404451 -0.0 0.0 -0.0 8.03664 8.15572 -15.6401 -30.3267 30.5061 -67.5948 0.613344 16.9006 -0.091122 -22.7963 1.33368 -2.57246 1.8512 -2.24096 -13.3518 0.0 0.0 0.0 8.45069 26.0454 -2.68019 -21.467 0.27532 3.26354 41.2453 14.1789 -5.03044 7.88516 -0.0 -0.0 -0.0 0.0 -0.0 44.2923 -5.46406 -11.2253 -12.7984 -0.31192 -1.93525 23.357 19.3257 3.49376 9.50583 -0.0 -0.0 0.0 0.0 0.0 
1320.07760278 705.261 -1567.12686006 -14.6413472222 18.5143826878 8.20312061354 6.06459 0.324918 0.840645 6.06494 0.270769 0.859615 6.06856 0.178468 0.883402 6.06761 0.31574 0.844134 -9.80435 5.06443 -12.5591 -9.40704 18.0554 -11.1278 -0.0 0.0 -0.0 0.71518 15.0834 2.91803 -12.7118 -14.7988 58.9073 1.58284 -38.097 0.546547 -33.6602 -2.30353 3.56916 0.998844 -13.5005 0.981139 -0.0 0.0 -0.0 8.75826 7.82251 -17.179 -28.9703 30.8656 -67.1544 0.665914 18.2565 -0.107 -22.773 1.33181 -2.57013 1.80318 -1.72842 -12.823 0.0 0.0 0.0 9.49518 23.2516 -4.60478 -23.9607 0.227631 3.64321 39.9022 13.4869 -4.90288 7.91971 -0.0 -0.0 -0.0 0.0 -0.0 43.1827 -5.65682 -10.8287 -16.1022 -0.321687 -2.44199 21.3778 19.1372 3.22884 10.6004 -0.0 -0.0 0.0 0.0 0.0 
1323.56102092 705.261 -1569.01136372 -14.471273324 16.4340430962 7.63682722696 6.06459 0.324918 0.840645 6.06494 0.270769 0.859615 6.06856 0.178468 0.883402 6.06761 0.31574 0.844134 -9.80435 5.06443 -12.5591 -9.40704 18.0554 -11.1278 -0.0 0.0 -0.0 0.71518 15.0834 2.91803 -12.7118 -14.7988 58.9073 1.58284 -38.097 0.546547 -33.6602 -2.30353 3.56916 0.998844 -13.5005 0.981139 -0.0 0.0 -0.0 8.75826 7.82251 -17.179 -28.9703 30.8656 -67.1544 0.665914 18.2565 -0.107 -22.773 1.33181 -2.57013 1.80318 -1.72842 -12.823 0.0 0.0 0.0 9.49518 23.2516 -4.60478 -23.9607 0.227631 3.64321 39.9022 13.4869 -4.90288 7.91971 -0.0 -0.0 -0.0 0.0 -0.0 43.1827 -5.65682 -10.8287 -16.1022 -0.321687 -2.44199 21.3778 19.1372 3.22884 10.6004 -0.0 -0.0 0.0 0.0 0.0 
